<?xml version="1.0" encoding="utf-8"?>
<!-- Generator: Adobe Illustrator 28.1.0, SVG Export Plug-In . SVG Version: 6.00 Build 0)  -->
<svg version="1.1" id="Layer_1" xmlns="http://www.w3.org/2000/svg" xmlns:xlink="http://www.w3.org/1999/xlink" x="0px" y="0px"
	 viewBox="0 0 715.29 201.8" style="enable-background:new 0 0 715.29 201.8;" xml:space="preserve">
<style type="text/css">
	.st0{fill:#009346;}
	.st1{fill:#6D6E71;}
</style>
<g>
	<path class="st0" d="M158.62,5.41v30.56c0,6.64-1.88,11.79-5.64,15.44c-3.76,3.64-9.19,5.47-16.27,5.47
		c-6.92,0-12.24-1.77-15.96-5.31c-3.72-3.54-5.57-8.63-5.57-15.28V5.41h13.79V35.2c0,3.59,0.67,6.19,2.01,7.81
		c1.34,1.62,3.32,2.43,5.94,2.43c2.8,0,4.83-0.81,6.09-2.41c1.26-1.61,1.89-4.24,1.89-7.9V5.41H158.62z"/>
	<path class="st0" d="M249.43,21.55c0,5.67-1.67,10.05-5.02,13.14c-3.34,3.09-8.1,4.63-14.25,4.63h-3.85v16.84h-13.72V5.41h17.57
		c6.41,0,11.23,1.4,14.45,4.2C247.83,12.41,249.43,16.39,249.43,21.55z M226.31,28.15h2.5c2.06,0,3.7-0.58,4.91-1.74
		c1.22-1.16,1.82-2.75,1.82-4.79c0-3.43-1.9-5.14-5.69-5.14h-3.54V28.15z"/>
	<path class="st0" d="M331.98,56.17l-2.5-9.51h-16.49l-2.57,9.51h-15.07L311.91,5.2h18.3l16.77,50.97H331.98z M326.63,35.41
		l-2.19-8.34c-0.51-1.85-1.13-4.25-1.86-7.19c-0.73-2.94-1.21-5.05-1.44-6.32c-0.21,1.18-0.62,3.12-1.23,5.83s-1.97,8.04-4.08,16.01
		H326.63z"/>
	<path class="st0" d="M444.1,56.17h-17.99l-18.54-35.76h-0.31c0.44,5.62,0.66,9.92,0.66,12.88v22.88h-12.15V5.41h17.92l18.47,35.28
		h0.21c-0.33-5.11-0.49-9.22-0.49-12.33V5.41h12.22V56.17z"/>
	<path class="st0" d="M534.56,56.17h-39.55V47.7l21.98-31.22h-21.46V5.41h38.47v8.44L512.03,45.1h22.54V56.17z"/>
	<path class="st0" d="M585.13,56.17V5.41h13.79v50.76H585.13z"/>
	<path class="st1" d="M21.02,101.07c0,3.47-0.99,6.12-2.96,7.96c-1.97,1.84-4.82,2.76-8.55,2.76H3.55V90.74h6.61
		c3.44,0,6.11,0.91,8.01,2.72C20.07,95.28,21.02,97.81,21.02,101.07z M16.39,101.18c0-4.52-2-6.79-5.99-6.79H8.02v13.71h1.92
		C14.24,108.11,16.39,105.8,16.39,101.18z"/>
	<path class="st1" d="M33.09,111.8V90.74h4.47v21.06H33.09z"/>
	<path class="st1" d="M58.54,99.97h8.35v10.92c-1.35,0.44-2.63,0.75-3.82,0.93c-1.2,0.18-2.42,0.27-3.67,0.27
		c-3.18,0-5.61-0.93-7.28-2.8s-2.51-4.55-2.51-8.04c0-3.4,0.97-6.05,2.92-7.95c1.95-1.9,4.64-2.85,8.09-2.85
		c2.16,0,4.24,0.43,6.25,1.3l-1.48,3.57c-1.54-0.77-3.14-1.15-4.79-1.15c-1.93,0-3.48,0.65-4.64,1.95c-1.16,1.3-1.74,3.04-1.74,5.23
		c0,2.28,0.47,4.03,1.41,5.23c0.93,1.2,2.3,1.81,4.08,1.81c0.93,0,1.88-0.1,2.84-0.29v-4.39h-3.99V99.97z"/>
	<path class="st1" d="M79.61,111.8V90.74h4.47v21.06H79.61z"/>
	<path class="st1" d="M105.2,111.8h-4.47V94.46h-5.72v-3.72h15.9v3.72h-5.72V111.8z"/>
	<path class="st1" d="M134.74,111.8l-1.53-5.01h-7.68l-1.53,5.01h-4.81l7.43-21.14h5.46l7.46,21.14H134.74z M132.15,103.04
		c-1.41-4.54-2.21-7.11-2.39-7.71c-0.18-0.59-0.3-1.06-0.38-1.41c-0.31,1.23-1.22,4.27-2.72,9.12H132.15z"/>
	<path class="st1" d="M149.9,111.8V90.74h4.47v17.37h8.54v3.69H149.9z"/>
	<path class="st1" d="M204.17,97.31c0,2.27-0.71,4-2.12,5.2c-1.42,1.2-3.43,1.8-6.04,1.8h-1.92v7.49h-4.47V90.74h6.73
		c2.55,0,4.5,0.55,5.83,1.65C203.5,93.49,204.17,95.13,204.17,97.31z M194.09,100.65h1.47c1.37,0,2.4-0.27,3.08-0.81
		c0.68-0.54,1.02-1.33,1.02-2.37c0-1.05-0.29-1.82-0.86-2.32s-1.46-0.75-2.68-0.75h-2.03V100.65z"/>
	<path class="st1" d="M232.98,90.74v13.63c0,1.56-0.35,2.92-1.05,4.09s-1.7,2.07-3.01,2.69s-2.87,0.94-4.67,0.94
		c-2.71,0-4.81-0.69-6.31-2.08c-1.5-1.39-2.25-3.29-2.25-5.7V90.74h4.45v12.89c0,1.62,0.33,2.81,0.98,3.57
		c0.65,0.76,1.73,1.14,3.24,1.14c1.46,0,2.52-0.38,3.18-1.14c0.66-0.76,0.99-1.96,0.99-3.59V90.74H232.98z"/>
	<path class="st1" d="M245.84,90.74h6.55c2.99,0,5.15,0.42,6.5,1.28c1.35,0.85,2.03,2.2,2.03,4.05c0,1.26-0.3,2.29-0.89,3.1
		c-0.59,0.81-1.38,1.29-2.36,1.45v0.14c1.34,0.3,2.3,0.85,2.89,1.67c0.59,0.82,0.89,1.9,0.89,3.26c0,1.92-0.69,3.42-2.08,4.49
		c-1.39,1.08-3.27,1.61-5.65,1.61h-7.88V90.74z M250.3,99.08h2.59c1.21,0,2.09-0.19,2.63-0.56c0.54-0.37,0.81-0.99,0.81-1.86
		c0-0.81-0.29-1.38-0.89-1.74c-0.59-0.35-1.52-0.53-2.8-0.53h-2.35V99.08z M250.3,102.62v5.49h2.91c1.23,0,2.14-0.23,2.72-0.7
		c0.59-0.47,0.88-1.19,0.88-2.16c0-1.75-1.25-2.62-3.74-2.62H250.3z"/>
	<path class="st1" d="M273.35,111.8V90.74h4.47v17.37h8.54v3.69H273.35z"/>
	<path class="st1" d="M297.71,111.8V90.74h4.47v21.06H297.71z"/>
	<path class="st1" d="M324.12,94.15c-1.68,0-2.98,0.63-3.9,1.89c-0.92,1.26-1.38,3.02-1.38,5.28c0,4.69,1.76,7.04,5.29,7.04
		c1.48,0,3.27-0.37,5.37-1.11V111c-1.73,0.72-3.66,1.08-5.79,1.08c-3.06,0-5.41-0.93-7.03-2.79c-1.62-1.86-2.44-4.52-2.44-8
		c0-2.19,0.4-4.11,1.2-5.76c0.8-1.65,1.94-2.91,3.44-3.79c1.49-0.88,3.24-1.32,5.25-1.32c2.05,0,4.1,0.49,6.17,1.48l-1.44,3.63
		c-0.79-0.37-1.58-0.7-2.38-0.98C325.67,94.29,324.89,94.15,324.12,94.15z"/>
	<path class="st1" d="M357.03,111.8V90.74h4.47v21.06H357.03z"/>
	<path class="st1" d="M393.17,111.8h-5.67l-9.16-15.93h-0.13c0.18,2.81,0.27,4.82,0.27,6.02v9.91h-3.99V90.74h5.63l9.15,15.77h0.1
		c-0.14-2.74-0.22-4.67-0.22-5.8v-9.97h4.02V111.8z"/>
	<path class="st1" d="M410.57,111.8h-4.39V90.74h12.07v3.66h-7.68v5.43h7.14v3.64h-7.14V111.8z"/>
	<path class="st1" d="M434.53,103.72v8.08h-4.47V90.74h6.14c2.86,0,4.98,0.52,6.35,1.56c1.37,1.04,2.06,2.62,2.06,4.74
		c0,1.24-0.34,2.34-1.02,3.31c-0.68,0.97-1.65,1.72-2.89,2.27c3.17,4.74,5.23,7.79,6.19,9.18h-4.95l-5.03-8.08H434.53z
		 M434.53,100.09h1.44c1.41,0,2.45-0.23,3.13-0.7c0.67-0.47,1.01-1.21,1.01-2.22c0-1-0.34-1.71-1.03-2.13
		c-0.69-0.42-1.75-0.64-3.19-0.64h-1.35V100.09z"/>
	<path class="st1" d="M470.12,111.8l-1.53-5.01h-7.68l-1.53,5.01h-4.81l7.43-21.14h5.46l7.46,21.14H470.12z M467.53,103.04
		c-1.41-4.54-2.21-7.11-2.39-7.71c-0.18-0.59-0.3-1.06-0.38-1.41c-0.31,1.23-1.22,4.27-2.72,9.12H467.53z"/>
	<path class="st1" d="M497.71,105.95c0,1.9-0.69,3.4-2.05,4.5c-1.37,1.09-3.27,1.64-5.71,1.64c-2.25,0-4.23-0.42-5.96-1.27v-4.15
		c1.42,0.64,2.63,1.08,3.61,1.34c0.98,0.26,1.88,0.39,2.7,0.39c0.98,0,1.73-0.19,2.25-0.56c0.53-0.38,0.79-0.93,0.79-1.67
		c0-0.41-0.11-0.78-0.35-1.1c-0.23-0.32-0.57-0.63-1.01-0.93c-0.45-0.3-1.36-0.77-2.73-1.42c-1.29-0.61-2.25-1.19-2.89-1.74
		c-0.64-0.56-1.16-1.21-1.54-1.95s-0.58-1.6-0.58-2.59c0-1.86,0.63-3.33,1.89-4.39c1.26-1.06,3.01-1.6,5.23-1.6
		c1.09,0,2.14,0.13,3.13,0.39c1,0.26,2.03,0.62,3.12,1.09l-1.44,3.47c-1.12-0.46-2.05-0.78-2.79-0.97
		c-0.74-0.18-1.46-0.27-2.17-0.27c-0.85,0-1.49,0.2-1.95,0.59c-0.45,0.39-0.68,0.91-0.68,1.54c0,0.39,0.09,0.74,0.27,1.03
		c0.18,0.29,0.47,0.58,0.87,0.85c0.4,0.27,1.34,0.77,2.83,1.48c1.97,0.94,3.32,1.88,4.04,2.83
		C497.35,103.42,497.71,104.58,497.71,105.95z"/>
	<path class="st1" d="M517.35,111.8h-4.47V94.46h-5.72v-3.72h15.9v3.72h-5.72V111.8z"/>
	<path class="st1" d="M538.47,103.72v8.08H534V90.74h6.14c2.86,0,4.98,0.52,6.35,1.56c1.37,1.04,2.06,2.62,2.06,4.74
		c0,1.24-0.34,2.34-1.02,3.31c-0.68,0.97-1.65,1.72-2.89,2.27c3.17,4.74,5.23,7.79,6.19,9.18h-4.95l-5.03-8.08H538.47z
		 M538.47,100.09h1.44c1.41,0,2.45-0.23,3.13-0.7s1.01-1.21,1.01-2.22c0-1-0.34-1.71-1.03-2.13c-0.69-0.42-1.75-0.64-3.19-0.64
		h-1.35V100.09z"/>
	<path class="st1" d="M578.32,90.74v13.63c0,1.56-0.35,2.92-1.05,4.09c-0.7,1.17-1.7,2.07-3.02,2.69c-1.32,0.62-2.87,0.94-4.67,0.94
		c-2.71,0-4.81-0.69-6.31-2.08c-1.5-1.39-2.25-3.29-2.25-5.7V90.74h4.45v12.89c0,1.62,0.33,2.81,0.98,3.57
		c0.65,0.76,1.73,1.14,3.24,1.14c1.46,0,2.52-0.38,3.18-1.14c0.66-0.76,0.99-1.96,0.99-3.59V90.74H578.32z"/>
	<path class="st1" d="M600.11,94.15c-1.68,0-2.98,0.63-3.9,1.89c-0.92,1.26-1.38,3.02-1.38,5.28c0,4.69,1.76,7.04,5.29,7.04
		c1.48,0,3.27-0.37,5.37-1.11V111c-1.73,0.72-3.66,1.08-5.79,1.08c-3.06,0-5.41-0.93-7.03-2.79c-1.62-1.86-2.44-4.52-2.44-8
		c0-2.19,0.4-4.11,1.2-5.76c0.8-1.65,1.94-2.91,3.44-3.79c1.49-0.88,3.24-1.32,5.25-1.32c2.05,0,4.1,0.49,6.17,1.48l-1.44,3.63
		c-0.79-0.37-1.58-0.7-2.38-0.98C601.66,94.29,600.88,94.15,600.11,94.15z"/>
	<path class="st1" d="M625.79,111.8h-4.47V94.46h-5.72v-3.72h15.9v3.72h-5.72V111.8z"/>
	<path class="st1" d="M659.58,90.74v13.63c0,1.56-0.35,2.92-1.05,4.09c-0.7,1.17-1.7,2.07-3.02,2.69c-1.32,0.62-2.87,0.94-4.67,0.94
		c-2.71,0-4.81-0.69-6.31-2.08c-1.5-1.39-2.25-3.29-2.25-5.7V90.74h4.45v12.89c0,1.62,0.33,2.81,0.98,3.57
		c0.65,0.76,1.73,1.14,3.24,1.14c1.46,0,2.52-0.38,3.18-1.14c0.66-0.76,0.99-1.96,0.99-3.59V90.74H659.58z"/>
	<path class="st1" d="M676.9,103.72v8.08h-4.47V90.74h6.14c2.86,0,4.98,0.52,6.35,1.56c1.37,1.04,2.06,2.62,2.06,4.74
		c0,1.24-0.34,2.34-1.02,3.31c-0.68,0.97-1.65,1.72-2.89,2.27c3.17,4.74,5.23,7.79,6.19,9.18h-4.95l-5.03-8.08H676.9z M676.9,100.09
		h1.44c1.41,0,2.45-0.23,3.13-0.7c0.67-0.47,1.01-1.21,1.01-2.22c0-1-0.34-1.71-1.03-2.13c-0.69-0.42-1.75-0.64-3.19-0.64h-1.35
		V100.09z"/>
	<path class="st1" d="M711.73,111.8h-12.13V90.74h12.13v3.66h-7.66v4.62h7.13v3.66h-7.13v5.43h7.66V111.8z"/>
	<path class="st0" d="M163.06,197.13h-17.99l-18.54-35.76h-0.31c0.44,5.62,0.66,9.92,0.66,12.88v22.88h-12.15v-50.76h17.92
		l18.47,35.28h0.21c-0.33-5.11-0.49-9.22-0.49-12.33v-22.95h12.22V197.13z"/>
	<path class="st0" d="M225.51,197.13h-30.14v-50.76h30.14v11.01h-16.42v7.99h15.21v11.01h-15.21v9.58h16.42V197.13z"/>
	<path class="st0" d="M278.13,197.13h-13.71v-39.55h-12.4v-11.21h38.47v11.21h-12.36V197.13z"/>
	<path class="st0" d="M373.91,197.13h-16.21l-4.86-22.12c-0.23-0.93-0.6-2.76-1.09-5.52c-0.5-2.75-0.86-5.06-1.09-6.91
		c-0.19,1.5-0.49,3.38-0.9,5.61c-0.42,2.23-0.83,4.29-1.23,6.16s-2.09,9.47-5.05,22.78h-16.22l-12.57-50.76h13.23l5.52,25.45
		c1.25,5.62,2.11,10.1,2.57,13.44c0.3-2.36,0.84-5.57,1.61-9.62c0.78-4.05,1.5-7.41,2.17-10.07l4.48-19.2h12.71l4.34,19.2
		c0.74,3.08,1.49,6.63,2.26,10.66c0.76,4.03,1.27,7.04,1.53,9.03c0.3-2.57,1.12-7.03,2.47-13.37l5.63-25.52h13.23L373.91,197.13z"/>
	<path class="st0" d="M461.8,171.68c0,8.54-2.09,15.03-6.28,19.48c-4.19,4.44-10.33,6.66-18.4,6.66c-7.96,0-14.07-2.23-18.32-6.7
		c-4.25-4.47-6.37-10.97-6.37-19.51c0-8.45,2.11-14.9,6.34-19.36c4.23-4.46,10.37-6.68,18.42-6.68c8.08,0,14.2,2.21,18.37,6.63
		C459.72,156.62,461.8,163.11,461.8,171.68z M426.87,171.68c0,9.82,3.42,14.72,10.24,14.72c3.47,0,6.05-1.19,7.73-3.58
		c1.68-2.38,2.52-6.1,2.52-11.14c0-5.07-0.85-8.81-2.55-11.23c-1.7-2.42-4.24-3.63-7.62-3.63
		C430.31,156.82,426.87,161.77,426.87,171.68z"/>
	<path class="st0" d="M506.02,178.66v18.47H492.3v-50.76h16.63c13.8,0,20.69,5,20.69,15c0,5.88-2.87,10.43-8.61,13.64l14.79,22.12
		h-15.56l-10.76-18.47H506.02z M506.02,168.34h2.57c4.79,0,7.19-2.12,7.19-6.36c0-3.5-2.35-5.24-7.05-5.24h-2.71V168.34z"/>
	<path class="st0" d="M605.13,197.13h-15.49l-10.03-19.41l-4.06,2.43v16.98h-13.79v-50.76h13.79v22.05c0.69-1.37,2.09-3.53,4.2-6.49
		l10.66-15.56h15l-16.01,22.74L605.13,197.13z"/>
</g>
</svg>
